<svg width="28" height="28" viewBox="0 0 28 28" fill="none" xmlns="http://www.w3.org/2000/svg">
<g clip-path="url(#clip0)">
<path d="M21.0277 0.259383C20.9281 0.0981641 20.7521 0 20.5625 0H14C13.698 0 13.4531 0.244891 13.4531 0.546875V16.3641L13.1797 16.8199L7.57833 7.48431C7.47951 7.31954 7.3015 7.21875 7.10938 7.21875C6.91727 7.21875 6.73926 7.31954 6.64044 7.48426L0.0779388 18.4218C-0.0234518 18.5907 -0.0260768 18.8011 0.0709935 18.9725C0.168064 19.1441 0.3499 19.25 0.546884 19.25H11.7216L6.96856 27.1718C6.86717 27.3407 6.86455 27.5511 6.96162 27.7225C7.05869 27.894 7.24052 27.9999 7.43751 27.9999H20.5625C20.7595 27.9999 20.9413 27.894 21.0384 27.7225C21.1355 27.5511 21.1328 27.3407 21.0315 27.1718L16.2784 19.25H27.4531C27.6502 19.25 27.832 19.144 27.929 18.9726C28.0261 18.8011 28.0235 18.5907 27.9221 18.4218L25.9067 15.0629C25.7513 14.8038 25.4153 14.7199 25.1564 14.8752C24.8974 15.0306 24.8134 15.3665 24.9687 15.6255L26.4872 18.1562H23.4161L21.4375 14.1991V12.1406C21.4375 11.8386 21.1926 11.5938 20.8906 11.5938C20.5886 11.5938 20.3438 11.8386 20.3438 12.1406V14.1991L18.3652 18.1562H15.6221L15.4581 17.8828L20.8906 8.82859L22.437 11.406C22.5925 11.665 22.9284 11.7489 23.1873 11.5936C23.4463 11.4382 23.5303 11.1023 23.375 10.8433L21.3596 7.48431C21.2608 7.31954 21.0828 7.21875 20.8906 7.21875C20.6985 7.21875 20.5205 7.31954 20.4217 7.48426L14.8203 16.8199L14.5469 16.3642V5.46875H20.5625C20.7521 5.46875 20.9281 5.37059 21.0277 5.20937C21.1273 5.0482 21.1364 4.84684 21.0517 4.67731L20.0802 2.73438L21.0517 0.791438C21.1364 0.621906 21.1273 0.420602 21.0277 0.259383ZM20.8906 15.551L22.1933 18.1562H19.588L20.8906 15.551ZM7.10938 15.551L8.41204 18.1562H5.80673L7.10938 15.551ZM9.63485 18.1562L7.65626 14.1991V12.1406C7.65626 11.8386 7.41142 11.5938 7.10938 11.5938C6.80734 11.5938 6.56251 11.8386 6.56251 12.1406V14.1991L4.58392 18.1562H1.51277L7.10938 8.82859L12.5419 17.8828L12.3779 18.1562H9.63485ZM14 24.301L15.3027 26.9062H12.6974L14 24.301ZM16.5255 26.9062L14.5469 22.9491V20.8906C14.5469 20.5886 14.302 20.3438 14 20.3438C13.698 20.3438 13.4531 20.5886 13.4531 20.8906V22.9491L11.4745 26.9062H8.4034C8.82931 26.1964 13.7674 17.9663 14 17.5786C14.2321 17.9654 19.1651 26.1871 19.5966 26.9062H16.5255ZM18.9796 2.97894L19.6776 4.375H14.5469V1.09375H19.6776L18.9796 2.48981C18.9026 2.64376 18.9026 2.82499 18.9796 2.97894Z" fill="#939393"/>
<path d="M24.1719 13.7812C24.4739 13.7812 24.7188 13.5364 24.7188 13.2344C24.7188 12.9323 24.4739 12.6875 24.1719 12.6875C23.8698 12.6875 23.625 12.9323 23.625 13.2344C23.625 13.5364 23.8698 13.7812 24.1719 13.7812Z" fill="#939393"/>
</g>
<defs>
<clipPath id="clip0">
<rect width="28" height="28" fill="white"/>
</clipPath>
</defs>
</svg>
