<svg width="28" height="28" viewBox="0 0 28 28" fill="none" xmlns="http://www.w3.org/2000/svg">
<path d="M12.7771 19.5513C12.9322 19.7062 13.1424 19.7934 13.3618 19.7934C13.581 19.7934 13.7912 19.7064 13.9463 19.5513L16.8979 16.5997C17.2209 16.2767 17.2209 15.7533 16.8979 15.4303C16.5751 15.1075 16.0515 15.1075 15.7287 15.4303L13.3618 17.7973L12.2826 16.718C11.9596 16.3953 11.4362 16.3953 11.1132 16.718C10.7904 17.0408 10.7904 17.5644 11.1132 17.8874L12.7771 19.5513Z" fill="#939393"/>
<path d="M14.0067 24.054C17.6257 24.054 20.5699 21.1096 20.5699 17.4906C20.5699 13.8716 17.6257 10.9275 14.0067 10.9275C10.3875 10.9275 7.44336 13.8716 7.44336 17.4906C7.44336 21.1096 10.3877 24.054 14.0067 24.054ZM14.0067 12.5809C16.714 12.5809 18.9164 14.7834 18.9164 17.4906C18.9164 20.1979 16.714 22.4005 14.0067 22.4005C11.2995 22.4005 9.0968 20.1979 9.0968 17.4906C9.0968 14.7834 11.2995 12.5809 14.0067 12.5809Z" fill="#939393"/>
<path d="M25.011 1.76047H23.503V0.826721C23.503 0.370209 23.1328 0 22.6763 0C22.2198 0 21.8496 0.370209 21.8496 0.826721V1.76047H20.225V0.826721C20.225 0.370209 19.8548 0 19.398 0C18.9415 0 18.5713 0.370209 18.5713 0.826721V1.76047H9.44193V0.826721C9.44193 0.370209 9.07172 0 8.61499 0C8.15848 0 7.78827 0.370209 7.78827 0.826721V1.76047H6.16367V0.826721C6.16367 0.370209 5.79346 0 5.33673 0C4.88022 0 4.51001 0.370209 4.51001 0.826721V1.76047H3.00183C1.52762 1.76047 0.328125 2.95996 0.328125 4.43439V25.3263C0.328125 26.8005 1.52762 28 3.00183 28H25.011C26.4854 28 27.6847 26.8005 27.6847 25.3263V4.43439C27.6847 2.95996 26.4852 1.76047 25.011 1.76047ZM26.031 25.3263C26.031 25.8888 25.5735 26.3466 25.011 26.3466H3.00183C2.43936 26.3466 1.98157 25.8888 1.98157 25.3263V8.63507H26.031V25.3263ZM1.98157 4.43439C1.98157 3.8717 2.43936 3.41412 3.00183 3.41412H4.51001V4.34787C4.51001 4.80438 4.88022 5.17459 5.33694 5.17459C5.79346 5.17459 6.16367 4.80438 6.16367 4.34787V3.41412H7.78827V4.34787C7.78827 4.80438 8.15848 5.17459 8.6152 5.17459C9.07172 5.17459 9.44193 4.80438 9.44193 4.34787V3.41412H18.5713V4.34787C18.5713 4.80438 18.9415 5.17459 19.3983 5.17459C19.8548 5.17459 20.225 4.80438 20.225 4.34787V3.41412H21.8496V4.34787C21.8496 4.80438 22.2198 5.17459 22.6763 5.17459C23.133 5.17459 23.5032 4.80438 23.5032 4.34787V3.41412H25.011C25.5735 3.41412 26.0312 3.8717 26.0312 4.43439V6.98141H1.98157V4.43439Z" fill="#939393"/>
</svg>
