<svg width="16" height="16" viewBox="0 0 16 16" fill="none" xmlns="http://www.w3.org/2000/svg">
<path d="M12.4995 14H3.49902C3.36642 14 3.23924 13.9473 3.14547 13.8536C3.0517 13.7598 2.99902 13.6326 2.99902 13.5V2.5C2.99902 2.36739 3.0517 2.24021 3.14547 2.14645C3.23924 2.05268 3.36642 2 3.49902 2H9.49951L12.9995 5.5V13.5C12.9995 13.5657 12.9866 13.6307 12.9615 13.6913C12.9363 13.752 12.8995 13.8071 12.8531 13.8536C12.8066 13.9 12.7515 13.9368 12.6909 13.9619C12.6302 13.9871 12.5652 14 12.4995 14Z" stroke="#191919" stroke-linecap="round" stroke-linejoin="round"/>
<path d="M9.5 2V5.5H13.0005" stroke="#191919" stroke-linecap="round" stroke-linejoin="round"/>
<path d="M6 8.5H10" stroke="#191919" stroke-linecap="round" stroke-linejoin="round"/>
<path d="M6 10.5H10" stroke="#191919" stroke-linecap="round" stroke-linejoin="round"/>
</svg>
