<svg width="16" height="16" viewBox="0 0 16 16" fill="none" xmlns="http://www.w3.org/2000/svg">
<path d="M9 14H7" stroke="#939393" stroke-linecap="round" stroke-linejoin="round"/>
<path d="M7.68619 1.23527C6.49917 2.18615 2.52893 5.98584 6.00054 12.0001H10.0005C13.4 5.9901 9.48779 2.19153 8.31322 1.23729C8.22468 1.16532 8.11416 1.12586 8.00006 1.12549C7.88597 1.12512 7.77519 1.16387 7.68619 1.23527V1.23527Z" stroke="#939393" stroke-linecap="round" stroke-linejoin="round"/>
<path d="M4.61727 6.95996L2.65788 9.31122C2.60894 9.36995 2.57412 9.43913 2.55609 9.51342C2.53806 9.58771 2.53731 9.66515 2.5539 9.73978L3.32658 13.2169C3.345 13.2997 3.38422 13.3766 3.44055 13.4401C3.49688 13.5036 3.56846 13.5518 3.64855 13.58C3.72863 13.6082 3.81458 13.6155 3.89829 13.6013C3.982 13.5871 4.06072 13.5519 4.12702 13.4988L6.0006 12" stroke="#939393" stroke-linecap="round" stroke-linejoin="round"/>
<path d="M11.3457 6.91479L13.3427 9.31121C13.3917 9.36994 13.4265 9.43911 13.4445 9.5134C13.4625 9.5877 13.4633 9.66513 13.4467 9.73976L12.674 13.2168C12.6556 13.2997 12.6164 13.3765 12.5601 13.4401C12.5037 13.5036 12.4321 13.5518 12.3521 13.58C12.272 13.6082 12.186 13.6155 12.1023 13.6013C12.0186 13.5871 11.9399 13.5518 11.8736 13.4988L10 11.9999" stroke="#939393" stroke-linecap="round" stroke-linejoin="round"/>
<path d="M8 6.75C8.41421 6.75 8.75 6.41421 8.75 6C8.75 5.58579 8.41421 5.25 8 5.25C7.58579 5.25 7.25 5.58579 7.25 6C7.25 6.41421 7.58579 6.75 8 6.75Z" fill="#939393"/>
</svg>
