<svg width="32" height="32" viewBox="0 0 32 32" fill="none" xmlns="http://www.w3.org/2000/svg">
<rect width="32" height="32" rx="8" fill="#F9F9F9"/>
<path d="M22.4263 8.80301L7.8694 12.9088C7.74694 12.9433 7.63793 13.0144 7.55696 13.1126C7.47598 13.2107 7.42689 13.3313 7.41625 13.4581C7.40561 13.5848 7.43392 13.7119 7.49741 13.8221C7.56089 13.9324 7.65652 14.0207 7.77151 14.0752L14.4599 17.2433C14.5903 17.3051 14.6953 17.4102 14.7571 17.5406L17.9253 24.2289C17.9798 24.3439 18.068 24.4396 18.1783 24.5031C18.2886 24.5665 18.4156 24.5948 18.5424 24.5842C18.6692 24.5736 18.7897 24.5245 18.8879 24.4435C18.986 24.3625 19.0571 24.2535 19.0917 24.1311L23.1974 9.5742C23.2276 9.46728 23.2287 9.35424 23.2007 9.24674C23.1726 9.13924 23.1164 9.04116 23.0379 8.9626C22.9593 8.88404 22.8612 8.82784 22.7537 8.79979C22.6462 8.77174 22.5332 8.77285 22.4263 8.80301Z" stroke="#939393" stroke-linecap="round" stroke-linejoin="round"/>
<path d="M14.6621 17.3388L18.1976 13.8032" stroke="#939393" stroke-linecap="round" stroke-linejoin="round"/>
</svg>
