<svg width="16" height="16" viewBox="0 0 16 16" fill="none" xmlns="http://www.w3.org/2000/svg">
<path d="M8.5 13.5H5.5C4.70435 13.5 3.94129 13.1839 3.37868 12.6213C2.81607 12.0587 2.5 11.2956 2.5 10.5V5.5C2.5 4.70435 2.81607 3.94129 3.37868 3.37868C3.94129 2.81607 4.70435 2.5 5.5 2.5H10.5C11.2956 2.5 12.0587 2.81607 12.6213 3.37868C13.1839 3.94129 13.5 4.70435 13.5 5.5V8.5C13 10 10 13 8.5 13.5Z" stroke="#939393" stroke-linecap="round" stroke-linejoin="round"/>
<path d="M8.5 13.5V11.5C8.5 10.7044 8.81607 9.94129 9.37868 9.37868C9.94129 8.81607 10.7044 8.5 11.5 8.5H13.5" stroke="#939393" stroke-linecap="round" stroke-linejoin="round"/>
</svg>
