<svg width="32" height="30" viewBox="0 0 32 30" fill="none" xmlns="http://www.w3.org/2000/svg">
<path d="M32 18.8515L28.1495 11.1501L24.2989 18.8515H26.8925C25.2599 23.9483 20.4851 27.6529 14.8518 27.6529C7.87581 27.6529 2.19966 21.977 2.19966 15.0008C2.19966 8.02484 7.87581 2.34869 14.8518 2.34869C20.2269 2.34869 24.8191 5.72386 26.6476 10.4627L27.9121 7.93334C25.3963 3.30057 20.4863 0.148438 14.8528 0.148438C6.66318 0.148241 0 6.81103 0 15.0008C0 23.19 6.66318 29.8534 14.8526 29.8534C21.7097 29.8534 27.4837 25.1786 29.1852 18.8517H32V18.8515Z" fill="#939393"/>
<path d="M6.96753 17.9652H8.35844L8.78058 16.4437H10.478L10.9359 17.9652H12.378L10.5398 12.0371H8.78058L6.96753 17.9652ZM9.32525 14.1832C9.42204 13.8398 9.51001 13.3911 9.59817 13.0398H9.61545C9.7036 13.3911 9.80943 13.8323 9.91526 14.1832L10.2848 15.4423H8.97418L9.32525 14.1832Z" fill="#939393"/>
<path d="M16.0487 13.0824C16.6988 13.0824 17.1032 13.1969 17.4288 13.3365L17.7107 12.2632C17.4203 12.1229 16.8307 11.9727 16.0659 11.9727C14.1219 11.9727 12.6888 13.0979 12.6784 15.0688C12.6701 15.9394 12.969 16.7126 13.5148 17.2243C14.0603 17.7521 14.8427 18.0246 15.9254 18.0246C16.7068 18.0246 17.4912 17.8312 17.9035 17.6906V14.5681H15.6964V15.6149H16.6124V16.8544C16.5059 16.9082 16.2593 16.9425 15.9517 16.9425C14.8513 16.9425 14.087 16.2206 14.087 14.9979C14.087 13.715 14.9305 13.0824 16.0487 13.0824Z" fill="#939393"/>
<path d="M22.614 13.1363V12.0371H18.955V17.9642H22.7375V16.866H20.3009V15.4586H22.4829V14.3669H20.3009V13.1363H22.614Z" fill="#939393"/>
</svg>
