<svg width="18" height="18" viewBox="0 0 18 18" fill="none" xmlns="http://www.w3.org/2000/svg">
<g clip-path="url(#clip0_898_9975)">
<path d="M16.106 4.73621C15.7332 4.91656 15.5771 5.36517 15.7575 5.73779C16.2502 6.75568 16.5 7.85284 16.5 9C16.5 13.1354 13.1354 16.5 9 16.5C4.86456 16.5 1.5 13.1354 1.5 9C1.5 4.86456 4.86456 1.5 9 1.5C10.7137 1.5 12.3235 2.05957 13.656 3.1181C13.9792 3.3761 14.4518 3.32208 14.7098 2.9978C14.9678 2.67371 14.9138 2.20166 14.5893 1.94403C13.0118 0.690308 11.0268 0 9 0C4.03766 0 0 4.03766 0 9C0 13.9623 4.03766 18 9 18C13.9623 18 18 13.9623 18 9C18 7.62488 17.6997 6.30707 17.1075 5.08466C16.9276 4.71112 16.4775 4.55548 16.106 4.73621Z" fill="#939393"/>
<path d="M9 3C8.586 3 8.25 3.336 8.25 3.75V9C8.25 9.414 8.586 9.75 9 9.75H12.75C13.164 9.75 13.5 9.414 13.5 9C13.5 8.586 13.164 8.25 12.75 8.25H9.75V3.75C9.75 3.336 9.414 3 9 3Z" fill="#939393"/>
</g>
<defs>
<clipPath id="clip0_898_9975">
<rect width="18" height="18" fill="white"/>
</clipPath>
</defs>
</svg>
