<svg width="10" height="6" viewBox="0 0 10 6" fill="none" xmlns="http://www.w3.org/2000/svg">
<path d="M0.159839 0.540538L0.487403 0.210698C0.590493 0.107689 0.727648 0.0509402 0.874234 0.0509402C1.02074 0.0509402 1.15806 0.107689 1.26115 0.210698L4.99776 3.94748L8.73869 0.206551C8.84162 0.103542 8.97893 0.046875 9.12544 0.046875C9.27195 0.046875 9.40934 0.103542 9.51235 0.206551L9.84 0.534359C10.0533 0.747531 10.0533 1.09477 9.84 1.30794L5.38598 5.77798C5.28305 5.88091 5.1459 5.95343 4.99809 5.95343H4.99638C4.8498 5.95343 4.71264 5.88082 4.60971 5.77798L0.159839 1.32006C0.0567484 1.21713 0.000163078 1.07583 0 0.929321C0 0.782735 0.0567484 0.643384 0.159839 0.540538Z" fill="black"/>
</svg>
