<svg width="12" height="7" viewBox="0 0 12 7" fill="none" xmlns="http://www.w3.org/2000/svg">
<path d="M0.191807 0.585052L0.584883 0.19415C0.708591 0.0720717 0.873178 0.00481773 1.04908 0.00481773C1.22489 0.00481773 1.38967 0.0720717 1.51338 0.19415L5.99732 4.6227L10.4864 0.189236C10.6099 0.0671577 10.7747 0 10.9505 0C11.1263 0 11.2912 0.0671577 11.4148 0.189236L11.808 0.577729C12.064 0.830365 12.064 1.24189 11.808 1.49452L6.46317 6.79207C6.33966 6.91405 6.17507 7 5.99771 7H5.99566C5.81975 7 5.65517 6.91396 5.53165 6.79207L0.191807 1.50888C0.0680981 1.3869 0.000195503 1.21944 0 1.04581C0 0.872085 0.0680981 0.706937 0.191807 0.585052Z" fill="#C4C4C4"/>
</svg>
