<svg width="28" height="28" viewBox="0 0 28 28" fill="none" xmlns="http://www.w3.org/2000/svg">
<path d="M12.7771 19.5506C12.9322 19.7055 13.1424 19.7926 13.3618 19.7926C13.581 19.7926 13.7912 19.7057 13.9463 19.5506L16.8979 16.599C17.2209 16.276 17.2209 15.7526 16.8979 15.4296C16.5751 15.1068 16.0515 15.1068 15.7287 15.4296L13.3618 17.7965L12.2826 16.7173C11.9596 16.3945 11.4362 16.3945 11.1132 16.7173C10.7904 17.0401 10.7904 17.5637 11.1132 17.8867L12.7771 19.5506Z" fill="#939393"/>
<path d="M14.0067 24.0542C17.6257 24.0542 20.5699 21.1099 20.5699 17.4909C20.5699 13.8719 17.6257 10.9277 14.0067 10.9277C10.3875 10.9277 7.44336 13.8719 7.44336 17.4909C7.44336 21.1099 10.3877 24.0542 14.0067 24.0542ZM14.0067 12.5812C16.714 12.5812 18.9164 14.7836 18.9164 17.4909C18.9164 20.1981 16.714 22.4008 14.0067 22.4008C11.2995 22.4008 9.0968 20.1981 9.0968 17.4909C9.0968 14.7836 11.2995 12.5812 14.0067 12.5812Z" fill="#939393"/>
<path d="M24.6829 1.76047H23.1749V0.826721C23.1749 0.370209 22.8047 0 22.3482 0C21.8917 0 21.5215 0.370209 21.5215 0.826721V1.76047H19.8969V0.826721C19.8969 0.370209 19.5266 0 19.0699 0C18.6134 0 18.2432 0.370209 18.2432 0.826721V1.76047H9.1138V0.826721C9.1138 0.370209 8.74359 0 8.28687 0C7.83035 0 7.46014 0.370209 7.46014 0.826721V1.76047H5.83554V0.826721C5.83554 0.370209 5.46533 0 5.00861 0C4.55209 0 4.18188 0.370209 4.18188 0.826721V1.76047H2.67371C1.19949 1.76047 0 2.95996 0 4.43439V25.3263C0 26.8005 1.19949 28 2.67371 28H24.6829C26.1573 28 27.3566 26.8005 27.3566 25.3263V4.43439C27.3566 2.95996 26.1571 1.76047 24.6829 1.76047ZM25.7029 25.3263C25.7029 25.8888 25.2453 26.3466 24.6829 26.3466H2.67371C2.11124 26.3466 1.65344 25.8888 1.65344 25.3263V8.63507H25.7029V25.3263ZM1.65344 4.43439C1.65344 3.8717 2.11124 3.41412 2.67371 3.41412H4.18188V4.34787C4.18188 4.80438 4.55209 5.17459 5.00882 5.17459C5.46533 5.17459 5.83554 4.80438 5.83554 4.34787V3.41412H7.46014V4.34787C7.46014 4.80438 7.83035 5.17459 8.28708 5.17459C8.74359 5.17459 9.1138 4.80438 9.1138 4.34787V3.41412H18.2432V4.34787C18.2432 4.80438 18.6134 5.17459 19.0701 5.17459C19.5266 5.17459 19.8969 4.80438 19.8969 4.34787V3.41412H21.5215V4.34787C21.5215 4.80438 21.8917 5.17459 22.3482 5.17459C22.8049 5.17459 23.1751 4.80438 23.1751 4.34787V3.41412H24.6829C25.2453 3.41412 25.7031 3.8717 25.7031 4.43439V6.98141H1.65344V4.43439Z" fill="#939393"/>
</svg>
