<svg width="19" height="19" viewBox="0 0 19 19" fill="none" xmlns="http://www.w3.org/2000/svg">
<g clip-path="url(#clip0)">
<path d="M13.4355 14.5469V16.0312C13.4355 17.6683 12.1038 19 10.4668 19H3.00781C1.3708 19 0.0390625 17.6683 0.0390625 16.0312V2.96875C0.0390625 1.33173 1.3708 0 3.00781 0H10.4668C12.1038 0 13.4355 1.33173 13.4355 2.96875V4.45312C13.4355 4.86307 13.1033 5.19531 12.6934 5.19531C12.2834 5.19531 11.9512 4.86307 11.9512 4.45312V2.96875C11.9512 2.15031 11.2852 1.48438 10.4668 1.48438H3.00781C2.18938 1.48438 1.52344 2.15031 1.52344 2.96875V16.0312C1.52344 16.8497 2.18938 17.5156 3.00781 17.5156H10.4668C11.2852 17.5156 11.9512 16.8497 11.9512 16.0312V14.5469C11.9512 14.1369 12.2834 13.8047 12.6934 13.8047C13.1033 13.8047 13.4355 14.1369 13.4355 14.5469ZM18.4956 8.22509L16.8337 6.56314C16.5437 6.27322 16.0738 6.27322 15.784 6.56314C15.4941 6.85291 15.4941 7.32287 15.784 7.61264L16.9662 8.79492H8.05469C7.64474 8.79492 7.3125 9.12717 7.3125 9.53711C7.3125 9.94705 7.64474 10.2793 8.05469 10.2793H16.9662L15.784 11.4616C15.4941 11.7514 15.4941 12.2213 15.784 12.5111C15.929 12.656 16.1189 12.7285 16.3088 12.7285C16.4988 12.7285 16.6887 12.656 16.8337 12.5111L18.4956 10.8491C19.2191 10.1256 19.2191 8.94858 18.4956 8.22509Z" fill="#939393"/>
</g>
<defs>
<clipPath id="clip0">
<rect width="19" height="19" fill="white"/>
</clipPath>
</defs>
</svg>
