<svg width="24" height="24" viewBox="0 0 24 24" fill="none" xmlns="http://www.w3.org/2000/svg">
<g clip-path="url(#clip0)">
<path d="M13.5004 24H10.5004C9.80037 24 9.00037 23.4 9.00037 22.2V20.1C9.00037 19.1 8.50037 18.2 7.70037 17.5C5.90037 16.1 5.00037 14.1 5.00037 11.9C5.10037 8.1 8.20037 5.1 11.9004 5C13.8004 5 15.6004 5.7 16.9004 7C18.2004 8.3 19.0004 10.1 19.0004 12C19.0004 14.1 18.1004 16.1 16.4004 17.4C15.5004 18.1 15.0004 19.2 15.0004 20.2V22.5C15.0004 23.3 14.3004 24 13.5004 24ZM12.0004 6C8.80037 6 6.10037 8.7 6.00037 11.9C6.00037 13.8 6.80037 15.6 8.30037 16.7C9.40037 17.6 10.0004 18.8 10.0004 20.1V22.2C10.0004 22.4 10.0004 23 10.5004 23H13.5004C13.8004 23 14.0004 22.8 14.0004 22.5V20.2C14.0004 18.9 14.7004 17.5 15.8004 16.6C17.2004 15.5 18.0004 13.8 18.0004 12C18.0004 10.4 17.4004 8.9 16.2004 7.7C15.1004 6.6 13.6004 6 12.0004 6Z" fill="#939393"/>
<path d="M14.5 21H9.5C9.2 21 9 20.8 9 20.5C9 20.2 9.2 20 9.5 20H14.5C14.8 20 15 20.2 15 20.5C15 20.8 14.8 21 14.5 21Z" fill="#939393"/>
<path d="M11.9996 3C11.6996 3 11.4996 2.8 11.4996 2.5V0.5C11.4996 0.2 11.6996 0 11.9996 0C12.2996 0 12.4996 0.2 12.4996 0.5V2.5C12.4996 2.8 12.2996 3 11.9996 3Z" fill="#939393"/>
<path d="M18.6984 5.80019C18.5984 5.80019 18.3984 5.80019 18.2984 5.70019C18.0984 5.50019 18.0984 5.20019 18.2984 5.00019L19.6984 3.6002C19.8984 3.4002 20.1984 3.4002 20.3984 3.6002C20.5984 3.8002 20.5984 4.1002 20.3984 4.3002L18.9984 5.70019C18.9984 5.70019 18.7984 5.80019 18.6984 5.80019Z" fill="#939393"/>
<path d="M23.5 12.5H21.5C21.2 12.5 21 12.3 21 12C21 11.7 21.2 11.5 21.5 11.5H23.5C23.8 11.5 24 11.7 24 12C24 12.3 23.8 12.5 23.5 12.5Z" fill="#939393"/>
<path d="M20.0984 20.6C19.9984 20.6 19.7984 20.6 19.6984 20.5L18.2984 19.1C18.0984 18.9 18.0984 18.6 18.2984 18.4C18.4984 18.2 18.7984 18.2 18.9984 18.4L20.3984 19.8C20.5984 20 20.5984 20.3 20.3984 20.5C20.3984 20.6 20.2984 20.6 20.0984 20.6Z" fill="#939393"/>
<path d="M3.90156 20.6C3.80156 20.6 3.60156 20.6 3.50156 20.5C3.30156 20.3 3.30156 20 3.50156 19.8L4.90156 18.4C5.10156 18.2 5.40156 18.2 5.60156 18.4C5.80156 18.6 5.80156 18.9 5.60156 19.1L4.20156 20.5C4.10156 20.6 4.00156 20.6 3.90156 20.6Z" fill="#939393"/>
<path d="M2.5 12.5H0.5C0.2 12.5 0 12.3 0 12C0 11.7 0.2 11.5 0.5 11.5H2.5C2.8 11.5 3 11.7 3 12C3 12.3 2.8 12.5 2.5 12.5Z" fill="#939393"/>
<path d="M5.30156 5.79961C5.20156 5.79961 5.00156 5.79961 4.90156 5.69961L3.50156 4.19961C3.30156 3.99961 3.30156 3.69961 3.50156 3.49961C3.70156 3.29961 4.00156 3.29961 4.20156 3.49961L5.60156 4.89961C5.80156 5.09961 5.80156 5.39961 5.60156 5.59961C5.50156 5.69961 5.40156 5.79961 5.30156 5.79961Z" fill="#939393"/>
<path d="M15.9996 12.5C15.6996 12.5 15.4996 12.3 15.4996 12C15.4996 10.1 13.8996 8.5 11.9996 8.5C11.6996 8.5 11.4996 8.3 11.4996 8C11.4996 7.7 11.6996 7.5 11.9996 7.5C14.4996 7.5 16.4996 9.5 16.4996 12C16.4996 12.3 16.2996 12.5 15.9996 12.5Z" fill="#939393"/>
</g>
<defs>
<clipPath id="clip0">
<rect width="24" height="24" fill="white"/>
</clipPath>
</defs>
</svg>
