<svg width="17" height="17" viewBox="0 0 17 17" fill="none" xmlns="http://www.w3.org/2000/svg">
<g clip-path="url(#clip0)">
<path d="M16.4968 16.1421V16.1414H16.5008V10.2734C16.5008 7.40274 15.8828 5.19141 12.5268 5.19141C10.9135 5.19141 9.83082 6.07674 9.38882 6.91607H9.34215V5.45941H6.16016V16.1414H9.47349V10.8521C9.47349 9.45941 9.73749 8.11274 11.4622 8.11274C13.1615 8.11274 13.1868 9.70207 13.1868 10.9414V16.1421H16.4968Z" fill="#939393"/>
<path d="M0.765625 5.45898H4.08296V16.141H0.765625V5.45898Z" fill="#939393"/>
<path d="M2.42133 0.140625C1.36067 0.140625 0.5 1.00129 0.5 2.06196C0.5 3.12263 1.36067 4.00129 2.42133 4.00129C3.482 4.00129 4.34267 3.12263 4.34267 2.06196C4.342 1.00129 3.48133 0.140625 2.42133 0.140625V0.140625Z" fill="#939393"/>
</g>
<defs>
<clipPath id="clip0">
<rect width="16" height="16" fill="white" transform="translate(0.5 0.140625)"/>
</clipPath>
</defs>
</svg>
