<svg width="14" height="14" viewBox="0 0 14 14" fill="none" xmlns="http://www.w3.org/2000/svg">
<path d="M7.0013 12.4511C6.89186 12.3238 6.73922 12.143 6.5574 11.919C6.1778 11.4512 5.67209 10.7965 5.16688 10.0477C4.66118 9.29816 4.15907 8.45896 3.78414 7.62207C3.40775 6.7819 3.16797 5.96244 3.16797 5.2474C3.16797 3.12797 4.88187 1.41406 7.0013 1.41406C9.12073 1.41406 10.8346 3.12797 10.8346 5.2474C10.8346 5.96244 10.5949 6.7819 10.2185 7.62207C9.84354 8.45896 9.34142 9.29816 8.83573 10.0477C8.33051 10.7965 7.8248 11.4512 7.44521 11.919C7.26338 12.143 7.11074 12.3238 7.0013 12.4511ZM5.29297 5.2474C5.29297 6.19047 6.05823 6.95573 7.0013 6.95573C7.94437 6.95573 8.70964 6.19047 8.70964 5.2474C8.70964 4.30432 7.94437 3.53906 7.0013 3.53906C6.05823 3.53906 5.29297 4.30432 5.29297 5.2474Z" stroke="black" stroke-width="0.5"/>
</svg>
