<svg width="19" height="19" viewBox="0 0 19 19" fill="none" xmlns="http://www.w3.org/2000/svg">
<path d="M10.3333 13.6667C11.2042 13.6667 11.9167 12.9542 11.9167 12.0833C11.9167 11.2125 11.2042 10.5 10.3333 10.5C9.4625 10.5 8.75 11.2125 8.75 12.0833C8.75 12.9542 9.4625 13.6667 10.3333 13.6667ZM15.0833 6.54167H14.2917V4.95833C14.2917 2.77333 12.5183 1 10.3333 1C8.14833 1 6.375 2.77333 6.375 4.95833H7.87917C7.87917 3.60458 8.97958 2.50417 10.3333 2.50417C11.6871 2.50417 12.7875 3.60458 12.7875 4.95833V6.54167H5.58333C4.7125 6.54167 4 7.25417 4 8.125V16.0417C4 16.9125 4.7125 17.625 5.58333 17.625H15.0833C15.9542 17.625 16.6667 16.9125 16.6667 16.0417V8.125C16.6667 7.25417 15.9542 6.54167 15.0833 6.54167ZM15.0833 16.0417H5.58333V8.125H15.0833V16.0417Z" fill="#191919"/>
</svg>
