<svg width="19" height="19" viewBox="0 0 19 19" fill="none" xmlns="http://www.w3.org/2000/svg">
<path d="M9.5013 13.4582C10.3721 13.4582 11.0846 12.7457 11.0846 11.8748C11.0846 11.004 10.3721 10.2915 9.5013 10.2915C8.63047 10.2915 7.91797 11.004 7.91797 11.8748C7.91797 12.7457 8.63047 13.4582 9.5013 13.4582ZM14.2513 6.33317H13.4596V4.74984C13.4596 2.56484 11.6863 0.791504 9.5013 0.791504C7.3163 0.791504 5.54297 2.56484 5.54297 4.74984H7.04713C7.04713 3.39609 8.14755 2.29567 9.5013 2.29567C10.8551 2.29567 11.9555 3.39609 11.9555 4.74984V6.33317H4.7513C3.88047 6.33317 3.16797 7.04567 3.16797 7.9165V15.8332C3.16797 16.704 3.88047 17.4165 4.7513 17.4165H14.2513C15.1221 17.4165 15.8346 16.704 15.8346 15.8332V7.9165C15.8346 7.04567 15.1221 6.33317 14.2513 6.33317ZM14.2513 15.8332H4.7513V7.9165H14.2513V15.8332Z" fill="#939393"/>
</svg>
