<svg width="20" height="16" viewBox="0 0 20 16" fill="none" xmlns="http://www.w3.org/2000/svg">
<path d="M18.2422 0H1.75781C0.789766 0 0 0.788906 0 1.75781V13.4766C0 14.4422 0.78625 15.2344 1.75781 15.2344H18.2422C19.2078 15.2344 20 14.4481 20 13.4766V1.75781C20 0.792188 19.2138 0 18.2422 0ZM17.9995 1.17188L10.0373 9.1341L2.00621 1.17188H17.9995ZM1.17188 13.2339V1.99488L6.81559 7.5902L1.17188 13.2339ZM2.00051 14.0625L7.64777 8.41523L9.62656 10.377C9.85563 10.6041 10.2253 10.6034 10.4534 10.3752L12.3828 8.44582L17.9995 14.0625H2.00051ZM18.8281 13.2339L13.2114 7.61719L18.8281 2.00047V13.2339Z" fill="#939393"/>
</svg>
