<svg width="28" height="32" viewBox="0 0 28 32" fill="none" xmlns="http://www.w3.org/2000/svg">
<path d="M26.5884 25.0489L24.1026 22.5631L25.8277 20.838L13.3318 6.56887C13.3344 4.85028 12.6608 3.18807 11.4507 1.95702C8.92729 -0.610333 4.77565 -0.657831 2.19624 1.85096C0.926567 3.08582 0.220546 4.7406 0.208172 6.51044C0.19586 8.28065 0.878382 9.9448 2.13 11.1965C3.36367 12.4302 5.03626 13.1181 6.77172 13.118H6.78272L21.0518 25.6139L22.7769 23.8889L25.2627 26.3748C26.028 27.1402 26.0105 28.1134 25.739 28.769C25.4674 29.4247 24.7915 30.1252 23.7092 30.1252C23.3507 30.1252 22.9939 30.0362 22.6774 29.8679L17.6598 27.1987C13.034 24.7379 7.51099 24.7384 2.88564 27.1998L0.704955 28.3603L1.58578 30.0154L3.76646 28.8549C7.84041 26.687 12.7049 26.6866 16.7793 28.8539L21.7968 31.5231C22.3835 31.8352 23.0448 32.0001 23.7092 32.0001C25.3875 32.0001 26.829 31.0369 27.4711 29.4865C28.1133 27.9359 27.7751 26.2355 26.5884 25.0489ZM14.8138 11.1071L11.3209 14.6L8.49369 12.1242L12.3379 8.27996L14.8138 11.1071ZM11.4551 6.51137L6.72516 11.2413C5.81809 11.2322 4.93658 10.9607 4.1865 10.4655L10.6791 3.97296C11.174 4.72292 11.4459 5.60468 11.4551 6.51137ZM2.08294 6.52337C2.09175 5.25926 2.59616 4.0772 3.50335 3.19488C5.10551 1.6366 7.55655 1.46011 9.35401 2.64654L2.85877 9.14185C2.34761 8.37245 2.07637 7.46919 2.08294 6.52337ZM20.9668 23.0472L12.7345 15.838L16.0517 12.5207L23.2611 20.7531L20.9668 23.0472Z" fill="#939393"/>
</svg>
