<svg width="32" height="32" viewBox="0 0 32 32" fill="none" xmlns="http://www.w3.org/2000/svg">
<path d="M24.0315 0.296438C23.9176 0.112188 23.7165 0 23.4998 0H15.9998C15.6547 0 15.3748 0.279875 15.3748 0.625V18.7019L15.0623 19.2227L8.66076 8.5535C8.54783 8.36519 8.34439 8.25 8.12483 8.25C7.90526 8.25 7.70183 8.36519 7.58889 8.55344L0.0888898 21.0534C-0.0269852 21.2465 -0.0299852 21.487 0.0809523 21.6829C0.19189 21.8789 0.399702 22 0.624827 22H13.396L7.96389 31.0534C7.84802 31.2465 7.84501 31.487 7.95595 31.6829C8.06689 31.8789 8.2747 31.9999 8.49983 31.9999H23.4998C23.725 31.9999 23.9328 31.8788 24.0437 31.6829C24.1546 31.4869 24.1516 31.2465 24.0358 31.0534L18.6037 22H31.3748C31.6 22 31.8078 21.8789 31.9187 21.6829C32.0296 21.487 32.0266 21.2466 31.9108 21.0535L29.6075 17.2147C29.4298 16.9186 29.0458 16.8228 28.75 17.0002C28.454 17.1779 28.358 17.5618 28.5355 17.8577L30.271 20.75H26.7611L24.4998 16.2275V13.875C24.4998 13.5299 24.22 13.25 23.8748 13.25C23.5297 13.25 23.2498 13.5299 23.2498 13.875V16.2275L20.9886 20.75H17.8537L17.6662 20.4375L23.8748 10.0898L25.6421 13.0354C25.8198 13.3314 26.2037 13.4273 26.4996 13.2498C26.7956 13.0722 26.8916 12.6883 26.7141 12.3923L24.4108 8.5535C24.2978 8.36519 24.0944 8.25 23.8748 8.25C23.6553 8.25 23.4518 8.36519 23.3389 8.55344L16.9373 19.2227L16.6248 18.7019V6.25H23.4998C23.7165 6.25 23.9176 6.13781 24.0315 5.95356C24.1453 5.76938 24.1557 5.53925 24.0589 5.3455L22.9486 3.125L24.0589 0.9045C24.1557 0.71075 24.1453 0.480687 24.0315 0.296438ZM23.8748 17.7726L25.3636 20.75H22.3861L23.8748 17.7726ZM8.12483 17.7726L9.61358 20.75H6.63608L8.12483 17.7726ZM11.0111 20.75L8.74983 16.2275V13.875C8.74983 13.5299 8.47001 13.25 8.12483 13.25C7.77964 13.25 7.49983 13.5299 7.49983 13.875V16.2275L5.23858 20.75H1.7287L8.12483 10.0898L14.3335 20.4375L14.146 20.75H11.0111ZM15.9998 27.7726L17.4886 30.75H14.5111L15.9998 27.7726ZM18.8861 30.75L16.6248 26.2275V23.875C16.6248 23.5299 16.345 23.25 15.9998 23.25C15.6547 23.25 15.3748 23.5299 15.3748 23.875V26.2275L13.1136 30.75H9.6037C10.0905 29.9387 15.734 20.5329 15.9998 20.0898C16.2651 20.5319 21.9028 29.9281 22.396 30.75H18.8861ZM21.6908 3.4045L22.4885 5H16.6248V1.25H22.4885L21.6908 2.8455C21.6028 3.02144 21.6028 3.22856 21.6908 3.4045Z" fill="#939393"/>
<path d="M27.625 15.75C27.9702 15.75 28.25 15.4702 28.25 15.125C28.25 14.7798 27.9702 14.5 27.625 14.5C27.2798 14.5 27 14.7798 27 15.125C27 15.4702 27.2798 15.75 27.625 15.75Z" fill="#939393"/>
</svg>
