<svg width="28" height="28" viewBox="0 0 28 28" fill="none" xmlns="http://www.w3.org/2000/svg">
<path d="M27.4531 24.2812H26.3594V3.0625C26.3594 2.76046 26.1145 2.51562 25.8125 2.51562H21.7838V0.546875C21.7838 0.244836 21.5389 0 21.237 0H6.76304C6.46105 0 6.21616 0.244836 6.21616 0.546875V2.51562H2.1875C1.88552 2.51562 1.64062 2.76046 1.64062 3.0625V24.2812H0.546875C0.244836 24.2812 0 24.5261 0 24.8281V27.4531C0 27.7552 0.244836 28 0.546875 28H11.5393C11.8413 28 12.0862 27.7552 12.0862 27.4531C12.0862 27.1511 11.8413 26.9062 11.5393 26.9062H1.09375V25.375H26.9062V26.9062H16.4608C16.1588 26.9062 15.914 27.1511 15.914 27.4531C15.914 27.7552 16.1588 28 16.4608 28H27.4531C27.7551 28 28 27.7552 28 27.4531V24.8281C28 24.5261 27.7551 24.2812 27.4531 24.2812ZM7.30991 1.09375H20.6901V2.51562H7.30991V1.09375ZM13.4531 24.2812H10.6094V21C10.6094 19.3166 11.8427 17.9164 13.4531 17.6541V24.2812ZM14.5469 24.2812V17.6541C16.1573 17.9164 17.3906 19.3166 17.3906 21V24.2812H14.5469ZM18.4844 24.2812V21C18.4844 18.5273 16.4727 16.5156 14 16.5156C11.5273 16.5156 9.51562 18.5273 9.51562 21V24.2812H2.73438V3.60938H25.2656V24.2812H18.4844Z" fill="#939393"/>
<path d="M7.4375 6.01562H4.8125C4.51052 6.01562 4.26562 6.26046 4.26562 6.5625V9.1875C4.26562 9.48954 4.51052 9.73438 4.8125 9.73438H7.4375C7.73954 9.73438 7.98438 9.48954 7.98438 9.1875V6.5625C7.98438 6.26046 7.73954 6.01562 7.4375 6.01562ZM6.89062 8.64062H5.35938V7.10938H6.89062V8.64062Z" fill="#939393"/>
<path d="M12.6875 6.01562H10.0625C9.76046 6.01562 9.51562 6.26046 9.51562 6.5625V9.1875C9.51562 9.48954 9.76046 9.73438 10.0625 9.73438H12.6875C12.9895 9.73438 13.2344 9.48954 13.2344 9.1875V6.5625C13.2344 6.26046 12.9895 6.01562 12.6875 6.01562ZM12.1406 8.64062H10.6094V7.10938H12.1406V8.64062Z" fill="#939393"/>
<path d="M17.9375 6.01562H15.3125C15.0105 6.01562 14.7656 6.26046 14.7656 6.5625V9.1875C14.7656 9.48954 15.0105 9.73438 15.3125 9.73438H17.9375C18.2395 9.73438 18.4844 9.48954 18.4844 9.1875V6.5625C18.4844 6.26046 18.2395 6.01562 17.9375 6.01562ZM17.3906 8.64062H15.8594V7.10938H17.3906V8.64062Z" fill="#939393"/>
<path d="M23.1875 6.01562H20.5625C20.2605 6.01562 20.0156 6.26046 20.0156 6.5625V9.1875C20.0156 9.48954 20.2605 9.73438 20.5625 9.73438H23.1875C23.4895 9.73438 23.7344 9.48954 23.7344 9.1875V6.5625C23.7344 6.26046 23.4895 6.01562 23.1875 6.01562ZM22.6406 8.64062H21.1094V7.10938H22.6406V8.64062Z" fill="#939393"/>
<path d="M7.4375 11.2656H4.8125C4.51052 11.2656 4.26562 11.5105 4.26562 11.8125V14.4375C4.26562 14.7395 4.51052 14.9844 4.8125 14.9844H7.4375C7.73954 14.9844 7.98438 14.7395 7.98438 14.4375V11.8125C7.98438 11.5105 7.73954 11.2656 7.4375 11.2656ZM6.89062 13.8906H5.35938V12.3594H6.89062V13.8906Z" fill="#939393"/>
<path d="M12.6875 11.2656H10.0625C9.76046 11.2656 9.51562 11.5105 9.51562 11.8125V14.4375C9.51562 14.7395 9.76046 14.9844 10.0625 14.9844H12.6875C12.9895 14.9844 13.2344 14.7395 13.2344 14.4375V11.8125C13.2344 11.5105 12.9895 11.2656 12.6875 11.2656ZM12.1406 13.8906H10.6094V12.3594H12.1406V13.8906Z" fill="#939393"/>
<path d="M17.9375 11.2656H15.3125C15.0105 11.2656 14.7656 11.5105 14.7656 11.8125V14.4375C14.7656 14.7395 15.0105 14.9844 15.3125 14.9844H17.9375C18.2395 14.9844 18.4844 14.7395 18.4844 14.4375V11.8125C18.4844 11.5105 18.2395 11.2656 17.9375 11.2656ZM17.3906 13.8906H15.8594V12.3594H17.3906V13.8906Z" fill="#939393"/>
<path d="M23.1875 11.2656H20.5625C20.2605 11.2656 20.0156 11.5105 20.0156 11.8125V14.4375C20.0156 14.7395 20.2605 14.9844 20.5625 14.9844H23.1875C23.4895 14.9844 23.7344 14.7395 23.7344 14.4375V11.8125C23.7344 11.5105 23.4895 11.2656 23.1875 11.2656ZM22.6406 13.8906H21.1094V12.3594H22.6406V13.8906Z" fill="#939393"/>
<path d="M7.4375 16.5156H4.8125C4.51052 16.5156 4.26562 16.7605 4.26562 17.0625V19.6875C4.26562 19.9895 4.51052 20.2344 4.8125 20.2344H7.4375C7.73954 20.2344 7.98438 19.9895 7.98438 19.6875V17.0625C7.98438 16.7605 7.73954 16.5156 7.4375 16.5156ZM6.89062 19.1406H5.35938V17.6094H6.89062V19.1406Z" fill="#939393"/>
<path d="M23.1875 16.5156H20.5625C20.2605 16.5156 20.0156 16.7605 20.0156 17.0625V19.6875C20.0156 19.9895 20.2605 20.2344 20.5625 20.2344H23.1875C23.4895 20.2344 23.7344 19.9895 23.7344 19.6875V17.0625C23.7344 16.7605 23.4895 16.5156 23.1875 16.5156ZM22.6406 19.1406H21.1094V17.6094H22.6406V19.1406Z" fill="#939393"/>
<path d="M14 26.9062C13.8562 26.9062 13.7151 26.9648 13.6134 27.0665C13.5116 27.1682 13.4531 27.3093 13.4531 27.4531C13.4531 27.597 13.5116 27.738 13.6134 27.8398C13.7151 27.9415 13.8562 28 14 28C14.1438 28 14.2849 27.9415 14.3866 27.8398C14.4883 27.738 14.5469 27.597 14.5469 27.4531C14.5469 27.3093 14.4884 27.1682 14.3866 27.0665C14.2849 26.9648 14.1438 26.9062 14 26.9062Z" fill="#939393"/>
</svg>
