<svg width="20" height="20" viewBox="0 0 20 20" fill="none" xmlns="http://www.w3.org/2000/svg">
<path d="M14.6677 13.0329L14.6677 13.0329L14.6722 13.0344C15.8632 13.428 17.1185 13.6277 18.3952 13.6277C19.0039 13.6277 19.5 14.1238 19.5001 14.7325V18.3952C19.5001 19.0039 19.004 19.5 18.3952 19.5C8.52812 19.5 0.5 11.4719 0.5 1.60484C0.5 0.99609 0.99609 0.5 1.60484 0.5H5.27776C5.88651 0.5 6.38259 0.996079 6.38255 1.60487V1.6049C6.38255 2.88105 6.58249 4.13442 6.9767 5.32985C7.10376 5.7385 6.99617 6.16706 6.70179 6.46105L6.67678 6.48602L6.65554 6.51426L5.00789 8.70447L4.81677 8.95852L4.96575 9.23937C6.38597 11.9165 8.06465 13.5941 10.7595 15.0326L11.0413 15.183L11.2962 14.9906L13.5451 13.293L13.5755 13.27L13.602 13.2427C13.69 13.1524 13.8521 13.0596 14.0642 13.0121C14.2729 12.9653 14.4889 12.9719 14.6677 13.0329Z" stroke="#939393"/>
</svg>
