<svg width="16" height="13" viewBox="0 0 16 13" fill="none" xmlns="http://www.w3.org/2000/svg">
<path d="M5.45484 12.3952C11.1473 12.3952 14.2603 7.64035 14.2603 3.51725C14.2603 3.3822 14.2575 3.24771 14.2515 3.11397C14.8558 2.67349 15.3809 2.12382 15.7953 1.49816C15.2408 1.74677 14.644 1.9139 14.0181 1.98951C14.657 1.60307 15.1475 0.992013 15.3789 0.263582C14.7809 0.621008 14.1187 0.880684 13.4137 1.02094C12.849 0.414439 12.0449 0.0351562 11.1546 0.0351562C9.44564 0.0351562 8.05963 1.43249 8.05963 3.15499C8.05963 3.39997 8.08684 3.63806 8.13988 3.86649C5.56775 3.736 3.28685 2.49445 1.76062 0.606406C1.49495 1.06744 1.34163 1.60316 1.34163 2.17478C1.34163 3.2572 1.88801 4.21303 2.71879 4.77201C2.21106 4.75629 1.73414 4.61576 1.31719 4.38184C1.31672 4.39496 1.31672 4.4077 1.31672 4.42165C1.31672 5.93283 2.38347 7.19456 3.79974 7.48047C3.53961 7.5518 3.26591 7.59021 2.98363 7.59021C2.78456 7.59021 2.59047 7.5705 2.40192 7.53395C2.79591 8.77373 3.93848 9.6759 5.29304 9.7012C4.23377 10.5383 2.89941 11.0369 1.44919 11.0369C1.19976 11.0369 0.953179 11.0225 0.710938 10.9936C2.08062 11.8788 3.70703 12.3953 5.45493 12.3953" fill="#939393"/>
</svg>
