<svg width="17" height="17" viewBox="0 0 17 17" fill="none" xmlns="http://www.w3.org/2000/svg">
<g clip-path="url(#clip0)">
<path d="M12.1714 10.1078L12.1654 10.1578C10.6994 9.42711 10.5461 9.32977 10.3568 9.61377C10.2254 9.81044 9.84276 10.2564 9.72743 10.3884C9.61076 10.5184 9.49476 10.5284 9.29676 10.4384C9.09676 10.3384 8.45476 10.1284 7.69476 9.44844C7.10276 8.91844 6.70543 8.26844 6.58809 8.06844C6.39276 7.73111 6.80143 7.68311 7.17343 6.97911C7.24009 6.83911 7.20609 6.72911 7.15676 6.62977C7.10676 6.52977 6.70876 5.54977 6.54209 5.15911C6.38209 4.76977 6.21743 4.81911 6.09409 4.81911C5.71009 4.78577 5.42943 4.79111 5.18209 5.04844C4.10609 6.23111 4.37743 7.45111 5.29809 8.74844C7.10743 11.1164 8.07143 11.5524 9.83409 12.1578C10.3101 12.3091 10.7441 12.2878 11.0874 12.2384C11.4701 12.1778 12.2654 11.7578 12.4314 11.2878C12.6014 10.8178 12.6014 10.4278 12.5514 10.3378C12.5021 10.2478 12.3714 10.1978 12.1714 10.1078Z" fill="#939393"/>
<path d="M14.18 2.86993C9.054 -2.0854 0.570667 1.5086 0.567333 8.49927C0.567333 9.8966 0.933333 11.2593 1.63067 12.4626L0.5 16.5706L4.72333 15.4693C9.99333 18.3159 16.4973 14.5359 16.5 8.50327C16.5 6.38593 15.6733 4.39327 14.17 2.89593L14.18 2.86993ZM15.168 8.48127C15.164 13.5699 9.578 16.7479 5.16 14.1506L4.92 14.0079L2.42 14.6579L3.09 12.2279L2.93067 11.9779C0.181333 7.60127 3.34 1.88127 8.548 1.88127C10.3173 1.88127 11.978 2.57127 13.2287 3.82127C14.4787 5.0606 15.168 6.72127 15.168 8.48127Z" fill="#939393"/>
</g>
<defs>
<clipPath id="clip0">
<rect width="16" height="16" fill="white" transform="translate(0.5 0.570312)"/>
</clipPath>
</defs>
</svg>
