<svg width="18" height="18" viewBox="0 0 18 18" fill="none" xmlns="http://www.w3.org/2000/svg">
<g clip-path="url(#clip0)">
<path d="M9.04427 15.7721C10.2056 15.7721 11.1471 14.8306 11.1471 13.6693C11.1471 12.5079 10.2056 11.5664 9.04427 11.5664C7.88289 11.5664 6.94141 12.5079 6.94141 13.6693C6.94141 14.8306 7.88289 15.7721 9.04427 15.7721Z" fill="#939393"/>
<path d="M14.0667 8.60359C14.0355 8.57152 14.0025 8.54292 13.9705 8.51345L13.876 8.42417C13.8604 8.4077 13.8431 8.39556 13.8231 8.37996C11.104 5.90957 6.94245 6.00752 4.34725 8.60273L4.043 8.90784L3.62174 9.32911C3.10859 9.84225 3.11119 10.6787 3.6252 11.1927C4.14008 11.7085 4.97655 11.7093 5.48883 11.1962L6.21521 10.4698C7.8656 8.82029 10.5501 8.82029 12.1996 10.469L12.724 10.9769C13.232 11.4848 14.0606 11.484 14.5712 10.9726C14.8182 10.7264 14.9543 10.3979 14.9552 10.0486C14.956 9.70096 14.8217 9.37245 14.5746 9.12714L14.0667 8.60359Z" fill="#939393"/>
<path d="M17.6508 6.0038L17.2139 5.56694C17.2122 5.5652 17.2113 5.5626 17.2079 5.56174L16.8629 5.21502C16.8022 5.15521 16.7363 5.1032 16.667 5.05812C12.235 1.16705 5.4939 1.28667 1.20323 5.41438C1.18243 5.43345 1.15903 5.44645 1.13822 5.46725L0.349435 6.25691C-0.118637 6.72412 -0.116037 7.4843 0.354636 7.95498C0.824443 8.42478 1.58463 8.42825 2.0527 7.95931L2.84149 7.17139C2.84669 7.16445 2.85102 7.15838 2.85623 7.15405C6.32603 3.80213 11.8302 3.78133 15.3278 7.08557L15.9484 7.70707C16.4156 8.17428 17.1775 8.17254 17.6473 7.70274C18.1163 7.23206 18.118 6.47101 17.6508 6.0038Z" fill="#939393"/>
</g>
<defs>
<clipPath id="clip0">
<rect width="18" height="18" fill="white"/>
</clipPath>
</defs>
</svg>
