<svg width="56" height="57" viewBox="0 0 56 57" fill="none" xmlns="http://www.w3.org/2000/svg">
<path d="M40.9713 36.8601L40.9781 36.8624L40.9848 36.8647C44.3145 37.965 47.8237 38.5232 51.3923 38.5232C53.0294 38.5232 54.364 39.8577 54.3641 41.4949C54.3641 41.4949 54.3641 41.495 54.3641 41.495V51.7008C54.3641 53.3381 53.0296 54.6726 51.3923 54.6726C23.957 54.6726 1.63477 32.3505 1.63477 4.91519C1.63477 3.27789 2.9693 1.94336 4.6066 1.94336H14.841C16.4783 1.94336 17.8128 3.27786 17.8127 4.91525V4.91534C17.8127 8.4822 18.3715 11.9857 19.4734 15.3274C19.8153 16.4282 19.5254 17.5806 18.7336 18.3713L18.6586 18.4462L18.5949 18.5309L14.0037 24.6338L13.4304 25.396L13.8773 26.2385C17.8448 33.7173 22.5378 38.407 30.0655 42.4253L30.9109 42.8766L31.6757 42.2992L37.9419 37.5689L38.0331 37.5L38.1128 37.4181C38.3404 37.1845 38.7718 36.9341 39.3474 36.8052C39.9129 36.6785 40.4945 36.6975 40.9713 36.8601Z" stroke="url(#paint0_linear_169_1675)" stroke-width="3"/>
<defs>
<linearGradient id="paint0_linear_169_1675" x1="27.9995" y1="0.443359" x2="27.9995" y2="56.1726" gradientUnits="userSpaceOnUse">
<stop stop-color="#FFEE58"/>
<stop offset="1" stop-color="#FFE606"/>
</linearGradient>
</defs>
</svg>
