<svg width="57" height="43" viewBox="0 0 57 43" fill="none" xmlns="http://www.w3.org/2000/svg">
<path d="M51.6593 0.0830078H5.7262C3.02878 0.0830078 0.828125 2.28126 0.828125 4.98108V37.6349C0.828125 40.3256 3.01898 42.533 5.7262 42.533H51.6593C54.35 42.533 56.5574 40.3422 56.5574 37.6349V4.98108C56.5574 2.29041 54.3665 0.0830078 51.6593 0.0830078ZM50.9829 3.34839L28.7966 25.5348L6.41835 3.34839H50.9829ZM4.09351 36.9588V5.64167L19.8195 21.2328L4.09351 36.9588ZM6.40246 39.2676L22.1384 23.5317L27.6522 28.9982C28.2904 29.631 29.3205 29.629 29.9561 28.9932L35.3324 23.617L50.983 39.2676H6.40246ZM53.292 36.9587L37.6413 21.308L53.292 5.65724V36.9587Z" fill="url(#paint0_linear_169_1680)"/>
<defs>
<linearGradient id="paint0_linear_169_1680" x1="28.6927" y1="0.0830078" x2="28.6927" y2="42.533" gradientUnits="userSpaceOnUse">
<stop stop-color="#FFEE58"/>
<stop offset="1" stop-color="#FFE606"/>
</linearGradient>
</defs>
</svg>
