<svg width="20" height="20" viewBox="0 0 20 20" fill="none" xmlns="http://www.w3.org/2000/svg">
<g clip-path="url(#clip0_170_793)">
<path d="M14.1406 15.3125V16.875C14.1406 18.5982 12.7388 20 11.0156 20H3.16406C1.44089 20 0.0390625 18.5982 0.0390625 16.875V3.125C0.0390625 1.40182 1.44089 0 3.16406 0H11.0156C12.7388 0 14.1406 1.40182 14.1406 3.125V4.6875C14.1406 5.11902 13.7909 5.46875 13.3594 5.46875C12.9279 5.46875 12.5781 5.11902 12.5781 4.6875V3.125C12.5781 2.26349 11.8771 1.5625 11.0156 1.5625H3.16406C2.30255 1.5625 1.60156 2.26349 1.60156 3.125V16.875C1.60156 17.7365 2.30255 18.4375 3.16406 18.4375H11.0156C11.8771 18.4375 12.5781 17.7365 12.5781 16.875V15.3125C12.5781 14.881 12.9279 14.5312 13.3594 14.5312C13.7909 14.5312 14.1406 14.881 14.1406 15.3125ZM19.467 8.65799L17.7176 6.90857C17.4124 6.60339 16.9177 6.60339 16.6127 6.90857C16.3075 7.21359 16.3075 7.70828 16.6127 8.01331L17.8571 9.25781H8.47656C8.04504 9.25781 7.69531 9.60754 7.69531 10.0391C7.69531 10.4706 8.04504 10.8203 8.47656 10.8203H17.8571L16.6127 12.0648C16.3075 12.3698 16.3075 12.8645 16.6127 13.1696C16.7653 13.3221 16.9652 13.3984 17.1651 13.3984C17.3651 13.3984 17.565 13.3221 17.7176 13.1696L19.467 11.4201C20.2286 10.6586 20.2286 9.41956 19.467 8.65799Z" fill="#C4C4C4"/>
</g>
<defs>
<clipPath id="clip0_170_793">
<rect width="20" height="20" fill="white"/>
</clipPath>
</defs>
</svg>
