<svg width="20" height="20" viewBox="0 0 20 20" fill="none" xmlns="http://www.w3.org/2000/svg">
<path d="M2.12887 1.77148C1.9132 1.77148 1.73828 1.94637 1.73828 2.16207C1.73828 2.37777 1.91316 2.55265 2.12887 2.55265H2.13277C2.34843 2.55265 2.5214 2.37777 2.5214 2.16207C2.5214 1.94637 2.34457 1.77148 2.12887 1.77148Z" fill="#C4C4C4"/>
<path d="M4.00191 1.77148C3.78625 1.77148 3.61133 1.94637 3.61133 2.16207C3.61133 2.37777 3.78621 2.55265 4.00191 2.55265H4.00578C4.22145 2.55265 4.39445 2.37777 4.39445 2.16207C4.39445 1.94637 4.21762 1.77148 4.00191 1.77148Z" fill="#C4C4C4"/>
<path d="M5.87496 1.77148C5.6593 1.77148 5.48438 1.94637 5.48438 2.16207C5.48438 2.37777 5.65926 2.55265 5.87496 2.55265H5.87883C6.09449 2.55265 6.26746 2.37777 6.26746 2.16207C6.26746 1.94637 6.09066 1.77148 5.87496 1.77148Z" fill="#C4C4C4"/>
<path d="M15.4547 1.77148H10.7148C10.4991 1.77148 10.3242 1.94637 10.3242 2.16207C10.3242 2.37777 10.4991 2.55265 10.7148 2.55265H15.4547C15.6704 2.55265 15.8453 2.37777 15.8453 2.16207C15.8453 1.94637 15.6704 1.77148 15.4547 1.77148Z" fill="#C4C4C4"/>
<path d="M9.13742 15.5051C9.06473 15.4324 8.96398 15.3906 8.86129 15.3906C8.75859 15.3906 8.65781 15.4324 8.5852 15.5051C8.51254 15.5777 8.4707 15.6785 8.4707 15.7812C8.4707 15.8839 8.5125 15.9847 8.5852 16.0573C8.65781 16.13 8.75855 16.1718 8.86129 16.1718C8.96402 16.1718 9.06477 16.13 9.13742 16.0573C9.21008 15.9847 9.25187 15.8839 9.25187 15.7812C9.25187 15.6785 9.21008 15.5777 9.13742 15.5051Z" fill="#C4C4C4"/>
<path d="M17.8909 5.01148V1.95484C17.8909 0.878008 17.0148 0.00195312 15.938 0.00195312H1.95289C0.876055 0.00195313 0 0.878047 0 1.95488V14.296C0 15.3304 0.841523 16.172 1.8759 16.172H3.34176V16.2354C3.34176 16.369 3.24664 16.4849 3.11563 16.511L1.64367 16.8043C0.825664 16.9673 0.215312 17.6339 0.124922 18.4631L0.00457031 19.5668C-0.00746094 19.6771 0.0280469 19.7873 0.102109 19.8699C0.176172 19.9525 0.281914 19.9997 0.392852 19.9997H8.86094C8.97191 19.9997 9.07766 19.9525 9.15172 19.8698C9.22578 19.7872 9.26125 19.677 9.24918 19.5667L9.12852 18.4627C9.03793 17.6337 8.42762 16.9673 7.60984 16.8043L6.13762 16.511C6.00656 16.4849 5.91148 16.3689 5.91148 16.2354V15.8686C5.91148 15.8666 5.91121 15.8647 5.91117 15.8627L6.57316 15.4843C6.58047 15.4801 6.58758 15.4757 6.59457 15.4711C6.94953 15.2367 7.18262 14.8193 7.21812 14.3545C7.21891 14.3445 7.21926 14.3346 7.21926 14.3247V12.7229C7.45266 12.5709 7.62305 12.2945 7.62305 11.8106L7.62367 10.933C7.62367 10.9184 7.62289 10.9041 7.62133 10.89C7.58133 10.117 6.95199 9.51664 6.17355 9.51664H2.85441C2.70871 9.51664 2.57348 9.43945 2.48566 9.37473C2.32117 9.25348 2.10605 9.23527 1.92406 9.32723C1.74277 9.41883 1.63016 9.60199 1.63016 9.80531V11.0762C1.63016 11.5079 1.78191 11.9046 2.03457 12.2165V14.3247C2.03457 14.3346 2.03496 14.3445 2.0357 14.3545C2.06738 14.7691 2.2591 15.1467 2.55547 15.3907H1.8759C1.27227 15.3908 0.781133 14.8997 0.781133 14.296V6.09773H5.14301C5.35867 6.09773 5.53359 5.92285 5.53359 5.70715C5.53359 5.49144 5.35871 5.31656 5.14301 5.31656H0.781172V4.22293H17.1097V5.0007H10.7693C9.48434 5.0007 8.43887 6.04613 8.43887 7.33113V10.6003C8.43887 11.8853 9.48434 12.9307 10.7693 12.9307H11.2576V14.0727C11.2576 14.2307 11.3528 14.3731 11.4987 14.4336C11.547 14.4536 11.5978 14.4633 11.6481 14.4633C11.7498 14.4633 11.8496 14.4236 11.9243 14.3489L13.3425 12.9307H17.1098V14.296C17.1098 14.8996 16.6186 15.3908 16.015 15.3908H10.4504C10.2347 15.3908 10.0598 15.5657 10.0598 15.7814C10.0598 15.9971 10.2346 16.172 10.4504 16.172H16.0149C17.0493 16.172 17.8909 15.3304 17.8909 14.296V12.92C19.0724 12.8081 20 11.8107 20 10.6004V7.33117C20 6.12082 19.0724 5.1234 17.8909 5.01148ZM6.16414 17.3128L7.45727 17.5704C7.93918 17.6664 8.29871 18.0591 8.35211 18.5475L8.42543 19.2185H0.828398L0.901562 18.5477C0.954805 18.0591 1.31441 17.6664 1.79637 17.5704L3.08961 17.3127C3.51371 17.6905 4.05434 17.8974 4.62691 17.8974C5.19949 17.8974 5.74008 17.6905 6.16414 17.3128ZM3.87273 16.9181C4.01512 16.7488 4.10449 16.5357 4.1198 16.3054C4.28133 16.3846 4.45406 16.4248 4.62691 16.4248C4.79957 16.4249 4.97207 16.3847 5.13352 16.3057C5.14887 16.5359 5.23836 16.7491 5.38074 16.9184C5.15328 17.0472 4.89547 17.1162 4.62691 17.1162C4.35828 17.1162 4.10035 17.0471 3.87273 16.9181ZM6.43816 14.3084C6.41848 14.5213 6.31793 14.7127 6.17301 14.8133L4.86082 15.5634C4.85352 15.5676 4.84641 15.572 4.83941 15.5766C4.70434 15.6658 4.54945 15.6657 4.41445 15.5766C4.40762 15.5721 4.40062 15.5678 4.39352 15.5637L3.085 14.8134C2.9375 14.7113 2.83539 14.5198 2.8157 14.3084V12.7785C3.01184 12.8513 3.22387 12.8912 3.445 12.8912H6.43816V14.3084ZM2.41133 11.0762V10.2161C2.5573 10.2701 2.70652 10.2979 2.85449 10.2979H6.17363C6.53805 10.2979 6.83164 10.5831 6.84195 10.9473C6.84207 10.9517 6.8423 10.9561 6.84258 10.9604L6.84195 11.8104C6.84195 11.8105 6.84195 11.8106 6.84195 11.8107C6.84195 12.0084 6.80156 12.0584 6.79695 12.0634C6.78117 12.0807 6.71277 12.11 6.5566 12.11H3.44504C2.875 12.11 2.41133 11.6463 2.41133 11.0762ZM0.781172 3.4418V1.95488C0.781172 1.30879 1.3068 0.783164 1.95289 0.783164H15.938C16.5841 0.783164 17.1097 1.30879 17.1097 1.95488V3.44184H0.781172V3.4418ZM19.2188 10.6004C19.2188 11.4546 18.5238 12.1496 17.6695 12.1496H13.1806C13.077 12.1496 12.9777 12.1908 12.9045 12.264L12.0387 13.1298V12.5402C12.0387 12.3245 11.8638 12.1496 11.6481 12.1496H10.7693C9.91508 12.1496 9.22004 11.4546 9.22004 10.6004V7.33117C9.22004 6.47691 9.91508 5.78191 10.7693 5.78191H17.6695C18.5238 5.78191 19.2188 6.47691 19.2188 7.33117V10.6004V10.6004Z" fill="#C4C4C4"/>
<path d="M11.0956 7.77734C10.4495 7.77734 9.92383 8.30297 9.92383 8.94906C9.92383 9.59516 10.4495 10.1208 11.0956 10.1208C11.7417 10.1208 12.2673 9.59516 12.2673 8.94906C12.2673 8.30297 11.7417 7.77734 11.0956 7.77734ZM11.0956 9.33965C10.8802 9.33965 10.705 9.16445 10.705 8.94906C10.705 8.73371 10.8802 8.55848 11.0956 8.55848C11.311 8.55848 11.4862 8.73367 11.4862 8.94906C11.4862 9.16445 11.3109 9.33965 11.0956 9.33965Z" fill="#C4C4C4"/>
<path d="M14.2186 7.77734C13.5725 7.77734 13.0469 8.30297 13.0469 8.94906C13.0469 9.59516 13.5725 10.1208 14.2186 10.1208C14.8647 10.1208 15.3903 9.59516 15.3903 8.94906C15.3903 8.30297 14.8647 7.77734 14.2186 7.77734ZM14.2186 9.33965C14.0032 9.33965 13.828 9.16445 13.828 8.94906C13.828 8.73371 14.0032 8.55848 14.2186 8.55848C14.434 8.55848 14.6092 8.73367 14.6092 8.94906C14.6092 9.16445 14.4339 9.33965 14.2186 9.33965Z" fill="#C4C4C4"/>
<path d="M17.3436 7.77734C16.6975 7.77734 16.1719 8.30297 16.1719 8.94906C16.1719 9.59516 16.6975 10.1208 17.3436 10.1208C17.9897 10.1208 18.5154 9.59516 18.5154 8.94906C18.5154 8.30297 17.9897 7.77734 17.3436 7.77734ZM17.3436 9.33965C17.1282 9.33965 16.953 9.16445 16.953 8.94906C16.953 8.73371 17.1282 8.55848 17.3436 8.55848C17.5589 8.55848 17.7342 8.73367 17.7342 8.94906C17.7342 9.16445 17.5589 9.33965 17.3436 9.33965Z" fill="#C4C4C4"/>
<path d="M6.88348 5.4309C6.81086 5.35824 6.71012 5.31641 6.60738 5.31641C6.50465 5.31641 6.40394 5.3582 6.33125 5.4309C6.25859 5.50352 6.2168 5.60391 6.2168 5.70699C6.2168 5.80977 6.25855 5.91051 6.33125 5.98312C6.40391 6.05578 6.50465 6.09758 6.60738 6.09758C6.71051 6.09758 6.81086 6.05582 6.88348 5.98312C6.95652 5.91051 6.99797 5.80977 6.99797 5.70699C6.99797 5.6043 6.95652 5.50352 6.88348 5.4309Z" fill="#C4C4C4"/>
</svg>
