<svg width="57" height="57" viewBox="0 0 57 57" fill="none" xmlns="http://www.w3.org/2000/svg">
<g clip-path="url(#clip0_169_1667)">
<path d="M41.0949 33.6654L41.074 33.8396C35.9678 31.2946 35.4337 30.9556 34.7743 31.9448C34.3168 32.6298 32.984 34.1832 32.5823 34.643C32.1759 35.0958 31.7719 35.1306 31.0822 34.8171C30.3856 34.4688 28.1495 33.7374 25.5023 31.3689C23.4403 29.5229 22.0564 27.2589 21.6477 26.5622C20.9674 25.3873 22.3908 25.2201 23.6865 22.768C23.9187 22.2804 23.8003 21.8972 23.6284 21.5513C23.4543 21.2029 22.068 17.7895 21.4875 16.4288C20.9302 15.0727 20.3567 15.2446 19.9271 15.2446C18.5896 15.1285 17.612 15.147 16.7505 16.0433C13.0027 20.1627 13.9478 24.412 17.1546 28.9307C23.4566 37.1787 26.8143 38.6973 32.9538 40.8057C34.6117 41.3328 36.1234 41.2585 37.3192 41.0867C38.6521 40.8754 41.4223 39.4125 42.0005 37.7754C42.5926 36.1384 42.5926 34.78 42.4185 34.4665C42.2466 34.153 41.7915 33.9789 41.0949 33.6654Z" fill="url(#paint0_linear_169_1667)"/>
<path d="M48.0919 8.45215C30.2376 -8.80767 0.689497 3.71051 0.677887 28.0596C0.677887 32.9266 1.95269 37.6729 4.38156 41.8642L0.443359 56.1726L15.1536 52.3366C33.5094 62.2518 56.1633 49.0857 56.1726 28.0735C56.1726 20.6987 53.2932 13.758 48.057 8.54271L48.0919 8.45215ZM51.5331 27.9969C51.5192 45.7211 32.0627 56.7903 16.6745 47.7436L15.8386 47.2467L7.13087 49.5107L9.46453 41.0468L8.90956 40.176C-0.666582 24.9318 10.3353 5.00854 28.4752 5.00854C34.6379 5.00854 40.4221 7.41187 44.7783 11.7657C49.1321 16.0824 51.5331 21.8666 51.5331 27.9969Z" fill="url(#paint1_linear_169_1667)"/>
</g>
<defs>
<linearGradient id="paint0_linear_169_1667" x1="28.4199" y1="15.1943" x2="28.4199" y2="41.2142" gradientUnits="userSpaceOnUse">
<stop stop-color="#FFEE58"/>
<stop offset="1" stop-color="#FFE606"/>
</linearGradient>
<linearGradient id="paint1_linear_169_1667" x1="28.308" y1="0.442383" x2="28.308" y2="56.1726" gradientUnits="userSpaceOnUse">
<stop stop-color="#FFEE58"/>
<stop offset="1" stop-color="#FFE606"/>
</linearGradient>
<clipPath id="clip0_169_1667">
<rect width="55.7292" height="55.7292" fill="white" transform="translate(0.443359 0.443359)"/>
</clipPath>
</defs>
</svg>
